Description

Sinopse e detalhes

Após uma chuva de pequenos meteoros que atingem a Terra (incluindo Nova York), a NASA se dá conta de que um asteróide do tamanho do Texas está em um curso de colisão com o nosso planeta. O asteróide se aproxima da Terra à uma velocidade 35.000km/h. e, se o choque acontecer, qualquer forma de vida deixará de existir na Terra, exatamente como o que exterminou os dinossauros 65 milhões de anos atrás. Restando apenas 18 dias para o choque entre a Terra e o asteróide, a única solução possível é enviar astronautas em um ônibus espacial até a superfície do asteróide e lá perfurar 800 pés para colocar um bomba nuclear, detonando-a por controle remoto. Para cumprir tal missão é convocado o mais famoso perfurador de petróleo (Bruce Willis) a grandes profundidades do mundo, que exige formar sua equipe com técnicos que têm um comportamento nada convencional para os padrões do governo.

Format : Matroska
Format version : Version 2
File size : 806 MiB
Duration : 2h 30mn
Overall bit rate : 748 Kbps
Encoded date : UTC 2013-05-07 09:47:22
Writing application : mkvmerge v5.8.0 ('No Sleep / Pillow') built on Sep 2 2012 15:37:04
Writing library : libebml v1.2.3 + libmatroska v1.3.0

Video
ID : 1
Format : AVC
Format/Info : Advanced Video Codec
Format profile : High@L4.1
Format settings, CABAC : Yes
Format settings, ReFrames : 4 frames
Muxing mode : Header stripping
Codec ID : V_MPEG4/ISO/AVC
Duration : 2h 30mn
Bit rate : 541 Kbps
Width : 720 pixels
Height : 224 pixels
Display aspect ratio : 3.214
Frame rate mode : Constant
Frame rate : 23.976 fps
Color space : YUV
Chroma subsampling : 4:2:0
Bit depth : 8 bits
Scan type : Progressive
Bits/(Pixel*Frame) : 0.140
Stream size : 583 MiB (72%)
Title : Armageddon ( by fantasma )
Writing library : x264 core 130 r2273 b3065e6
Encoding settings : cabac=1 / ref=3 / deblock=1:0:0 / analyse=0x3:0x113 / me=hex / subme=7 / psy=1 / psy_rd=1.00:0.00 / mixed_ref=1 / me_range=16 / chroma_me=1 / trellis=1 / 8x8dct=1 / cqm=0 / deadzone=21,11 / fast_pskip=1 / chroma_qp_offset=-2 / threads=3 / lookahead_threads=1 / sliced_threads=0 / nr=0 / decimate=1 / interlaced=0 / bluray_compat=0 / constrained_intra=0 / bframes=3 / b_pyramid=2 / b_adapt=1 / b_bias=0 / direct=1 / weightb=1 / open_gop=0 / weightp=2 / keyint=240 / keyint_min=23 / scenecut=40 / intra_refresh=0 / rc_lookahead=40 / rc=crf / mbtree=1 / crf=23.0 / qcomp=0.60 / qpmin=0 / qpmax=69 / qpstep=4 / vbv_maxrate=62500 / vbv_bufsize=78125 / crf_max=0.0 / nal_hrd=none / ip_ratio=1.40 / aq=1:1.00
Language : Portuguese
Default : Yes
Forced : No

Audio
ID : 2
Format : AC-3
Format/Info : Audio Coding 3
Format profile : Dolby Digital
Mode extension : CM (complete main)
Format settings, Endianness : Big
Muxing mode : Header stripping
Codec ID : A_AC3
Duration : 2h 30mn
Bit rate mode : Constant
Bit rate : 192 Kbps
Channel(s) : 2 channels
Channel positions : Front: L R
Sampling rate : 48.0 KHz
Bit depth : 16 bits
Compression mode : Lossy
Delay relative to video : 16ms
Stream size : 207 MiB (26%)
Title : by fantasma
Language : Portuguese
Default : Yes
Forced : No

Text #1
ID : 3
Format : VobSub
Muxing mode : zlib
Codec ID : S_VOBSUB
Codec ID/Info : The same subtitle format used on DVDs
Title : by fantasma
Language : Portuguese
Default : No
Forced : No

Text #2
ID : 4
Format : VobSub
Muxing mode : zlib
Codec ID : S_VOBSUB
Codec ID/Info : The same subtitle format used on DVDs
Title : by fantasma
Language : Spanish
Default : No
Forced : No

Text #3
ID : 5
Format : UTF-8
Codec ID : S_TEXT/UTF8
Codec ID/Info : UTF-8 Plain Text
Title : Credito
Language : Portuguese
Default : Yes
Forced : No

Menu
00:00:00.000 : en:Chapter 01
00:23:11.267 : en:Chapter 02
00:28:43.467 : en:Chapter 03
00:39:53.101 : en:Chapter 04
00:59:05.335 : en:Chapter 05
01:20:56.502 : en:Chapter 06
01:41:07.635 : en:Chapter 07
01:59:18.936 : en:Chapter 08
02:08:04.670 : en:Chapter 09
02:23:44.571 : en:Chapter 10
02:30:37.971 : en:Chapter 11